<svg width="100%" height="50%" id="svg" viewBox="0 0 2000 390" xmlns="http://www.w3.org/2000/svg" class="transition duration-300 ease-in-out delay-150"><defs><linearGradient id="gradient" x1="76%" y1="7%" x2="24%" y2="93%"><stop offset="5%" stop-color="#03a9f1"></stop><stop offset="95%" stop-color="#a0025a"></stop></linearGradient></defs><path d="M 0,400 C 0,400 0,100 0,100 C 85.40512820512822,81.86410256410255 170.81025641025644,63.72820512820512 241,65 C 311.18974358974356,66.27179487179488 366.16410256410256,86.95128205128206 440,100 C 513.8358974358974,113.04871794871794 606.5333333333333,118.46666666666665 685,110 C 763.4666666666667,101.53333333333335 827.7025641025642,79.18205128205129 919,71 C 1010.2974358974358,62.81794871794871 1128.6564102564103,68.80512820512821 1220,76 C 1311.3435897435897,83.19487179487179 1375.6717948717949,91.5974358974359 1440,100 C 1440,100 1440,400 1440,400 Z" stroke="none" stroke-width="0" fill="url(#gradient)" fill-opacity="0.4" class="transition-all duration-300 ease-in-out delay-150 path-0" transform="rotate(-180 720 200)"></path><defs><linearGradient id="gradient" x1="76%" y1="7%" x2="24%" y2="93%"><stop offset="5%" stop-color="#03a9f1"></stop><stop offset="95%" stop-color="#a0025a"></stop></linearGradient></defs><path d="M 0,400 C 0,400 0,200 0,200 C 62.99230769230772,207.61538461538464 125.98461538461544,215.23076923076925 209,221 C 292.01538461538456,226.76923076923075 395.05384615384605,230.69230769230768 469,218 C 542.946153846154,205.30769230769232 587.8000000000001,176 680,183 C 772.1999999999999,190 911.7461538461537,233.30769230769232 1000,231 C 1088.2538461538463,228.69230769230768 1125.2153846153847,180.76923076923077 1190,168 C 1254.7846153846153,155.23076923076923 1347.3923076923077,177.6153846153846 1440,200 C 1440,200 1440,400 1440,400 Z" stroke="none" stroke-width="0" fill="url(#gradient)" fill-opacity="0.53" class="transition-all duration-300 ease-in-out delay-150 path-1" transform="rotate(-180 720 200)"></path><defs><linearGradient id="gradient" x1="76%" y1="7%" x2="24%" y2="93%"><stop offset="5%" stop-color="#03a9f1"></stop><stop offset="95%" stop-color="#a0025a"></stop></linearGradient></defs><path d="M 0,400 C 0,400 0,300 0,300 C 81.79743589743589,310.60769230769233 163.59487179487178,321.2153846153846 243,308 C 322.4051282051282,294.7846153846154 399.4179487179488,257.74615384615385 476,263 C 552.5820512820512,268.25384615384615 628.7333333333333,315.79999999999995 716,323 C 803.2666666666667,330.20000000000005 901.6487179487178,297.05384615384617 976,296 C 1050.3512820512822,294.94615384615383 1100.6717948717949,325.9846153846154 1174,332 C 1247.3282051282051,338.0153846153846 1343.6641025641024,319.0076923076923 1440,300 C 1440,300 1440,400 1440,400 Z" stroke="none" stroke-width="0" fill="url(#gradient)" fill-opacity="1" class="transition-all duration-300 ease-in-out delay-150 path-2" transform="rotate(-180 720 200)"></path></svg>